# xmcd
#
# Track frame offsets:
#   150
#   13233
#   31658
#   45788
#   66800
#   79213
#   92265
#   109103
#   123594
#   143290
#   162672
#   184709
#   201228
#   214393
#   224309
#   241305
#
# Disc length: 3392 seconds
#
# Revision: 0
# Processed by: cddbd v1.5.1PL2 Copyright (c) Steve Scherf et al.
# Submitted via: uFREEDB 1.6.2
#
DISCID=d70d3e10
DTITLE=The Golden Hit Paradise 1 - The Golden Hit Paradise 1
DYEAR=1970
DGENRE=UnClassifiable
TTITLE0=Raindrops keep falling on my head
TTITLE1=Let it be
TTITLE2=El Condor Pasa
TTITLE3=My sweet load
TTITLE4=Yellow River
TTITLE5=I think I love you
TTITLE6=Close to you
TTITLE7=Make it with you
TTITLE8=He ain't heavy, He's my brother
TTITLE9=Reflections of my life
TTITLE10=Bridge over troubled water
TTITLE11=The long and winding road
TTITLE12=I'll never fall in love again
TTITLE13=Snow bird
TTITLE14=Without love
TTITLE15=Honey come back
EXTD=
EXTT0=
EXTT1=
EXTT2=
EXTT3=
EXTT4=
EXTT5=
EXTT6=
EXTT7=
EXTT8=
EXTT9=
EXTT10=
EXTT11=
EXTT12=
EXTT13=
EXTT14=
EXTT15=
PLAYORDER=
